# xmcd CD database file
#
# Track frame offsets:
#	150
#	26222
#	49581
#	74721
#	98995
#	127554
#	154277
#	181290
#	197962
#	222995
#	246270
#	272149
#	291118
#
# Disc length: 4230 seconds
#
# Revision: 1
# Processed by: cddbd v1.4PL0 Copyright (c) Steve Scherf et al.
# Submitted via: CDex 1.50beta10
#
DISCID=c910840d
DTITLE=Peter Nathanson - Riviera Rose
DYEAR=2003
DGENRE=Blues
TTITLE0=I've Been Wronged 
TTITLE1=Town girls  
TTITLE2=Riviera Rose 
TTITLE3=Doreen
TTITLE4=Vicksburg
TTITLE5=I Saved You
TTITLE6=20 Dollars
TTITLE7=You're Burning Me Up
TTITLE8=Blues For You, Johnny
TTITLE9=Flying From Rita 
TTITLE10=Help Me
TTITLE11=You're My Baby
TTITLE12=The Wailing Room
EXTD=YEAR: 2003
EXTT0=
EXTT1=
EXTT2=
EXTT3=
EXTT4=
EXTT5=
EXTT6=
EXTT7=
EXTT8=
EXTT9=
EXTT10=
EXTT11=
EXTT12=
PLAYORDER=
